# Blender v3.6.0 OBJ File: 'marioprops.blend'
# www.blender.org
mtllib marioSign.mtl
o Cube.002_Cube.003
v -0.067439 0.065095 1.461291
v -0.114377 1.833273 1.445677
v -0.160847 0.065095 -1.432301
v -0.114377 2.036536 -1.445677
v 0.147382 0.065095 1.432674
v 0.100788 1.833273 1.445615
v 0.081040 0.065095 -1.461665
v 0.127830 2.036536 -1.445613
vt 0.375000 0.000000
vt 0.625000 0.000000
vt 0.625000 0.250000
vt 0.375000 0.250000
vt 0.625000 0.500000
vt 0.375000 0.500000
vt 0.625000 0.750000
vt 0.375000 0.750000
vt 0.625000 1.000000
vt 0.375000 1.000000
vt 0.125000 0.500000
vt 0.125000 0.750000
vt 0.875000 0.500000
vt 0.875000 0.750000
vn -0.9999 0.0000 0.0161
vn -0.0604 0.0021 -0.9982
vn 1.0000 0.0000 -0.0068
vn 0.0666 0.0025 0.9978
vn 0.0000 -1.0000 0.0000
vn -0.0000 0.9975 0.0701
usemtl None
s off
f 1/1/1 2/2/1 4/3/1 3/4/1
f 3/4/2 4/3/2 8/5/2 7/6/2
f 7/6/3 8/5/3 6/7/3 5/8/3
f 5/8/4 6/7/4 2/9/4 1/10/4
f 3/11/5 7/6/5 5/8/5 1/12/5
f 8/5/6 4/13/6 2/14/6 6/7/6
