# Blender 4.3.0
# www.blender.org
mtllib BLOCKOUT.mtl
o Cube.017
v 0.970599 8.044155 -21.067221
v -2.302710 8.044155 -17.443100
v -3.056818 8.044155 -17.791908
v -3.421792 8.044155 -18.229830
v -3.781335 8.044155 -18.635389
v -4.296187 8.044155 -19.528608
v -4.707338 8.044155 -20.789036
v -4.971537 8.044155 -21.789080
v -5.262815 8.044155 -23.372465
v -5.405542 8.044155 -24.999434
v -5.341394 8.044155 -26.787447
v -5.158048 8.044155 -28.406101
v -4.850053 8.044155 -30.148567
v -1.063217 8.044155 -29.350975
v -0.880629 8.044155 -27.132380
v -0.787613 8.044155 -25.360317
v -0.345606 8.044155 -23.316521
v 0.027695 8.044155 -22.532030
v 0.970599 -3.681739 -21.067221
v -2.302710 -3.681739 -17.443100
v -3.056818 -3.681739 -17.791908
v -3.421792 -3.681739 -18.229830
v -3.781335 -3.681739 -18.635389
v -4.296187 -3.681739 -19.528608
v -4.707338 -3.681739 -20.789036
v -4.971537 -3.681739 -21.789080
v -5.262815 -3.681739 -23.372465
v -5.405542 -3.681739 -24.999434
v -5.341394 -3.681739 -26.787447
v -5.158048 -3.681739 -28.406101
v -4.850053 -3.681739 -30.148567
v -1.063217 -3.681739 -29.350975
v -0.880629 -3.681739 -27.132380
v -0.787613 -3.681739 -25.360317
v -0.345606 -3.681739 -23.316521
v 0.027695 -3.681739 -22.532030
vn -0.0000 1.0000 -0.0000
vn -0.8664 -0.0000 0.4994
vn 0.2061 -0.0000 -0.9785
vn -0.9507 -0.0000 0.3101
vn 0.9966 -0.0000 -0.0820
vn -0.9668 -0.0000 0.2554
vn 0.9986 -0.0000 -0.0524
vn -0.9835 -0.0000 0.1809
vn 0.7421 -0.0000 0.6703
vn 0.9774 -0.0000 -0.2114
vn -0.9962 -0.0000 0.0874
vn -0.4198 -0.0000 0.9076
vn 0.9030 -0.0000 -0.4297
vn -0.9994 -0.0000 -0.0359
vn -0.7682 -0.0000 0.6402
vn 0.8409 -0.0000 -0.5413
vn -0.9936 -0.0000 -0.1126
vn -0.7483 -0.0000 0.6634
vn -0.9847 -0.0000 -0.1741
vt 0.414590 0.619428
vt 0.364298 0.609207
vt 0.332716 0.598987
vt 0.293088 0.582438
vt 0.265511 0.560222
vt 0.253276 0.544233
vt 0.240011 0.528059
vt 0.230496 0.493429
vt 0.354539 0.331923
vt 0.399538 0.372981
vt 0.423937 0.388791
vt 0.488703 0.405082
vt 0.545516 0.405587
vt 0.616496 0.409323
vt 0.633578 0.585297
vt 0.576808 0.603546
vt 0.524305 0.615676
vt 0.466622 0.622582
vt 0.824154 0.719477
vt 0.837370 0.708151
vt 0.550829 0.377696
vt 0.307485 0.398871
vt 0.847035 0.692389
vt 0.729311 0.589830
vt 0.727714 0.617194
vt 0.852936 0.679927
vt 0.727944 0.639014
vt 0.858661 0.660285
vt 0.684832 0.692950
vt 0.783969 0.735150
vt 0.718673 0.664415
vt 0.852802 0.660285
vt 0.854224 0.640211
vt 0.804885 0.730339
vt 0.709313 0.674307
vt 0.852271 0.640211
vt 0.847539 0.618306
vt 0.814571 0.724708
vt 0.855351 0.618306
vt 0.847498 0.598562
vt 0.835893 0.577387
s 0
usemtl Material.001
f 9/1/1 8/2/1 7/3/1 6/4/1 5/5/1 4/6/1 3/7/1 2/8/1 1/9/1 18/10/1 17/11/1 16/12/1 15/13/1 14/14/1 13/15/1 12/16/1 11/17/1 10/18/1
f 5/19/2 6/20/2 24/20/2 23/19/2
f 13/21/3 14/22/3 32/22/3 31/21/3
f 6/20/4 7/23/4 25/23/4 24/20/4
f 14/24/5 15/25/5 33/25/5 32/24/5
f 7/23/6 8/26/6 26/26/6 25/23/6
f 15/25/7 16/27/7 34/27/7 33/25/7
f 8/26/8 9/28/8 27/28/8 26/26/8
f 1/29/9 2/30/9 20/30/9 19/29/9
f 16/27/10 17/31/10 35/31/10 34/27/10
f 9/32/11 10/33/11 28/33/11 27/32/11
f 2/30/12 3/34/12 21/34/12 20/30/12
f 17/31/13 18/35/13 36/35/13 35/31/13
f 10/36/14 11/37/14 29/37/14 28/36/14
f 3/34/15 4/38/15 22/38/15 21/34/15
f 18/35/16 1/29/16 19/29/16 36/35/16
f 11/39/17 12/40/17 30/40/17 29/39/17
f 4/38/18 5/19/18 23/19/18 22/38/18
f 12/40/19 13/41/19 31/41/19 30/40/19
o Cube.001
v 14.846500 -1.219527 -16.271271
v 15.165916 -1.219527 -16.239813
v 14.846500 -0.842145 -16.271271
v 14.527084 -1.219527 -16.239813
v 14.219943 -1.219527 -16.146643
v 14.527084 -0.842145 -16.239813
v 14.219943 -0.842145 -16.146643
v 13.936880 -0.842145 -15.995342
v 13.688774 -0.842145 -15.791726
v 13.936880 -1.219527 -15.995342
v 13.688774 -1.219527 -15.791726
v 13.485159 -1.219527 -15.543620
v 13.333858 -1.219527 -15.260557
v 13.485159 -0.842145 -15.543620
v 13.333858 -0.842145 -15.260557
v 13.240688 -0.842145 -14.953417
v 13.209229 -0.842145 -14.634000
v 13.240688 -1.219527 -14.953417
v 13.209229 -1.219527 -14.634000
v 13.240687 -1.219527 -14.314585
v 13.333858 -1.219527 -14.007443
v 13.240687 -0.842145 -14.314585
v 13.333858 -0.842145 -14.007443
v 13.485159 -0.842145 -13.724382
v 13.688773 -0.842145 -13.476274
v 13.485159 -1.219527 -13.724382
v 13.688773 -1.219527 -13.476274
v 13.936880 -1.219527 -13.272659
v 14.219943 -1.219527 -13.121359
v 13.936880 -0.842145 -13.272659
v 14.219943 -0.842145 -13.121359
v 14.527082 -0.842145 -13.028189
v 14.846500 -0.842145 -12.996729
v 14.527082 -1.219527 -13.028189
v 14.846500 -1.219527 -12.996729
v 15.165915 -1.219527 -13.028189
v 15.473057 -1.219527 -13.121359
v 15.165915 -0.842145 -13.028189
v 15.473057 -0.842145 -13.121359
v 15.756119 -0.842145 -13.272659
v 16.004225 -0.842145 -13.476274
v 15.756119 -1.219527 -13.272659
v 16.004225 -1.219527 -13.476274
v 16.207840 -1.219527 -13.724381
v 16.359140 -1.219527 -14.007444
v 16.207840 -0.842145 -13.724381
v 16.359140 -0.842145 -14.007444
v 16.452311 -0.842145 -14.314584
v 16.483770 -0.842145 -14.634001
v 16.452311 -1.219527 -14.314584
v 16.483770 -1.219527 -14.634001
v 16.452311 -1.219527 -14.953417
v 16.359140 -1.219527 -15.260557
v 16.452311 -0.842145 -14.953417
v 16.359140 -0.842145 -15.260557
v 16.207842 -0.842145 -15.543619
v 16.004225 -0.842145 -15.791727
v 16.207842 -1.219527 -15.543619
v 16.004225 -1.219527 -15.791727
v 15.756119 -1.219527 -15.995342
v 15.473055 -1.219527 -16.146641
v 15.756119 -0.842145 -15.995342
v 15.473055 -0.842145 -16.146641
v 15.165916 -0.842145 -16.239813
vn 0.0980 -0.0000 -0.9952
vn -0.0980 -0.0000 -0.9952
vn -0.2903 -0.0000 -0.9569
vn -0.0000 1.0000 -0.0000
vn -0.4714 -0.0000 -0.8819
vn -0.6344 -0.0000 -0.7730
vn -0.7730 -0.0000 -0.6344
vn -0.8819 -0.0000 -0.4714
vn -0.9569 -0.0000 -0.2903
vn -0.9952 -0.0000 -0.0980
vn -0.9952 -0.0000 0.0980
vn -0.9569 -0.0000 0.2903
vn -0.8819 -0.0000 0.4714
vn -0.7730 -0.0000 0.6344
vn -0.6344 -0.0000 0.7730
vn -0.4714 -0.0000 0.8819
vn -0.2903 -0.0000 0.9569
vn -0.0980 -0.0000 0.9952
vn 0.0980 -0.0000 0.9952
vn 0.2903 -0.0000 0.9569
vn 0.4714 -0.0000 0.8819
vn 0.6344 -0.0000 0.7730
vn 0.7730 -0.0000 0.6344
vn 0.8819 -0.0000 0.4714
vn 0.9569 -0.0000 0.2903
vn 0.9952 -0.0000 0.0980
vn 0.9952 -0.0000 -0.0980
vn 0.9569 -0.0000 -0.2903
vn 0.8819 -0.0000 -0.4714
vn 0.7730 -0.0000 -0.6344
vn 0.6344 -0.0000 -0.7730
vn 0.4714 -0.0000 -0.8819
vn 0.2903 -0.0000 -0.9569
vt 1.182974 0.688451
vt 1.182974 0.811549
vt 1.140288 0.811549
vt 1.140288 0.688451
vt -0.140288 0.688451
vt -0.140288 0.811549
vt -0.182974 0.811549
vt -0.182974 0.688451
vt -0.097602 0.688451
vt -0.097602 0.811549
vt 0.271638 0.358784
vt 0.250000 0.360915
vt 0.228362 0.358784
vt 0.207555 0.352472
vt 0.188379 0.342222
vt 0.171571 0.328429
vt 0.157778 0.311621
vt 0.147528 0.292445
vt 0.141216 0.271638
vt 0.139085 0.250000
vt 0.141216 0.228362
vt 0.147528 0.207555
vt 0.157778 0.188379
vt 0.171571 0.171571
vt 0.188379 0.157778
vt 0.207555 0.147528
vt 0.228362 0.141216
vt 0.250000 0.139085
vt 0.271638 0.141216
vt 0.292445 0.147528
vt 0.311621 0.157778
vt 0.328429 0.171571
vt 0.342222 0.188379
vt 0.352472 0.207555
vt 0.358784 0.228362
vt 0.360915 0.250000
vt 0.358784 0.271638
vt 0.352472 0.292445
vt 0.342222 0.311621
vt 0.328429 0.328429
vt 0.311621 0.342222
vt 0.292445 0.352472
vt -0.054916 0.688451
vt -0.054916 0.811549
vt -0.012230 0.688451
vt -0.012230 0.811549
vt 0.030456 0.688451
vt 0.030456 0.811549
vt 0.073141 0.688451
vt 0.073141 0.811549
vt 0.115827 0.688451
vt 0.115827 0.811549
vt 0.158513 0.688451
vt 0.158513 0.811549
vt 0.201199 0.688451
vt 0.201199 0.811549
vt 0.243885 0.688451
vt 0.243885 0.811549
vt 0.286571 0.688451
vt 0.286571 0.811549
vt 0.329257 0.688451
vt 0.329257 0.811549
vt 0.371942 0.688451
vt 0.371942 0.811549
vt 0.414628 0.688451
vt 0.414628 0.811549
vt 0.457314 0.688451
vt 0.457314 0.811549
vt 0.500000 0.688451
vt 0.500000 0.811549
vt 0.542686 0.688451
vt 0.542686 0.811549
vt 0.585372 0.688451
vt 0.585372 0.811549
vt 0.628058 0.688451
vt 0.628058 0.811549
vt 0.670743 0.688451
vt 0.670743 0.811549
vt 0.713429 0.688451
vt 0.713429 0.811549
vt 0.756115 0.688451
vt 0.756115 0.811549
vt 0.798801 0.688451
vt 0.798801 0.811549
vt 0.841487 0.688451
vt 0.841487 0.811549
vt 0.884173 0.688451
vt 0.884173 0.811549
vt 0.926859 0.688451
vt 0.926859 0.811549
vt 0.969544 0.688451
vt 0.969544 0.811549
vt 1.012230 0.688451
vt 1.012230 0.811549
vt 1.054916 0.688451
vt 1.054916 0.811549
vt 1.097602 0.688451
vt 1.097602 0.811549
s 0
usemtl Material.002
f 37/42/20 39/43/20 100/44/20 38/45/20
f 40/46/21 42/47/21 39/48/21 37/49/21
f 41/50/22 43/51/22 42/47/22 40/46/22
f 100/52/23 39/53/23 42/54/23 43/55/23 44/56/23 45/57/23 50/58/23 51/59/23 52/60/23 53/61/23 58/62/23 59/63/23 60/64/23 61/65/23 66/66/23 67/67/23 68/68/23 69/69/23 74/70/23 75/71/23 76/72/23 77/73/23 82/74/23 83/75/23 84/76/23 85/77/23 90/78/23 91/79/23 92/80/23 93/81/23 98/82/23 99/83/23
f 46/84/24 44/85/24 43/51/24 41/50/24
f 47/86/25 45/87/25 44/85/25 46/84/25
f 48/88/26 50/89/26 45/87/26 47/86/26
f 49/90/27 51/91/27 50/89/27 48/88/27
f 54/92/28 52/93/28 51/91/28 49/90/28
f 55/94/29 53/95/29 52/93/29 54/92/29
f 56/96/30 58/97/30 53/95/30 55/94/30
f 57/98/31 59/99/31 58/97/31 56/96/31
f 62/100/32 60/101/32 59/99/32 57/98/32
f 63/102/33 61/103/33 60/101/33 62/100/33
f 64/104/34 66/105/34 61/103/34 63/102/34
f 65/106/35 67/107/35 66/105/35 64/104/35
f 70/108/36 68/109/36 67/107/36 65/106/36
f 71/110/37 69/111/37 68/109/37 70/108/37
f 72/112/38 74/113/38 69/111/38 71/110/38
f 73/114/39 75/115/39 74/113/39 72/112/39
f 78/116/40 76/117/40 75/115/40 73/114/40
f 79/118/41 77/119/41 76/117/41 78/116/41
f 80/120/42 82/121/42 77/119/42 79/118/42
f 81/122/43 83/123/43 82/121/43 80/120/43
f 86/124/44 84/125/44 83/123/44 81/122/44
f 87/126/45 85/127/45 84/125/45 86/124/45
f 88/128/46 90/129/46 85/127/46 87/126/46
f 89/130/47 91/131/47 90/129/47 88/128/47
f 94/132/48 92/133/48 91/131/48 89/130/48
f 95/134/49 93/135/49 92/133/49 94/132/49
f 96/136/50 98/137/50 93/135/50 95/134/50
f 97/138/51 99/139/51 98/137/51 96/136/51
f 38/45/52 100/44/52 99/139/52 97/138/52
o Cube.002
v 12.439169 -1.267452 -16.399321
v 11.929428 -1.267452 -17.960098
v 12.439169 0.172305 -16.399321
v 13.852493 -1.267452 -16.860905
v 13.342752 -1.267452 -18.421684
v 13.852493 0.172305 -16.860905
v 13.342752 0.172305 -18.421684
v 11.929428 0.172305 -17.960098
vn -0.0000 -1.0000 -0.0000
vn -0.9506 -0.0000 0.3105
vn 0.3105 -0.0000 0.9506
vn 0.9506 -0.0000 -0.3105
vn -0.0000 1.0000 -0.0000
vn -0.3105 -0.0000 -0.9506
vt 0.125000 0.688451
vt 0.375000 0.688451
vt 0.375000 0.750000
vt 0.125000 0.750000
vt 0.375000 0.000000
vt 0.625000 0.000000
vt 0.625000 0.250000
vt 0.375000 0.250000
vt 0.469300 0.750000
vt 0.530700 0.750000
vt 0.530700 0.811549
vt 0.469300 0.811549
vt 0.472024 0.688451
vt 0.527976 0.688451
vt 0.527976 0.750000
vt 0.472024 0.750000
vt 0.717508 0.688451
vt 0.782492 0.688451
vt 0.782492 0.750000
vt 0.717508 0.750000
vt 0.625000 0.500000
vt 0.375000 0.500000
s 0
usemtl Material.001
f 102/140/53 105/141/53 104/142/53 101/143/53
f 101/144/54 103/145/54 108/146/54 102/147/54
f 104/148/55 106/149/55 103/150/55 101/151/55
f 105/152/56 107/153/56 106/154/56 104/155/56
f 107/156/57 108/157/57 103/158/57 106/159/57
f 102/147/58 108/146/58 107/160/58 105/161/58
o Cube.003
v 14.846500 -0.786959 -16.130102
v 15.138374 -0.786959 -16.101355
v 14.846500 -0.442115 -16.130102
v 14.554625 -0.786959 -16.101357
v 14.273966 -0.786959 -16.016220
v 14.554625 -0.442115 -16.101357
v 14.273966 -0.442115 -16.016220
v 14.015309 -0.442115 -15.877964
v 13.788596 -0.442115 -15.691905
v 14.015309 -0.786959 -15.877964
v 13.788596 -0.786959 -15.691905
v 13.602537 -0.786959 -15.465191
v 13.464281 -0.786959 -15.206535
v 13.602537 -0.442115 -15.465191
v 13.464281 -0.442115 -15.206535
v 13.379145 -0.442115 -14.925875
v 13.350398 -0.442115 -14.634001
v 13.379145 -0.786959 -14.925875
v 13.350398 -0.786959 -14.634001
v 13.379145 -0.786959 -14.342125
v 13.464282 -0.786959 -14.061467
v 13.379145 -0.442115 -14.342125
v 13.464282 -0.442115 -14.061467
v 13.602536 -0.442115 -13.802811
v 13.788596 -0.442115 -13.576096
v 13.602536 -0.786959 -13.802811
v 13.788596 -0.786959 -13.576096
v 14.015310 -0.786959 -13.390038
v 14.273966 -0.786959 -13.251781
v 14.015310 -0.442115 -13.390038
v 14.273966 -0.442115 -13.251781
v 14.554625 -0.442115 -13.166646
v 14.846500 -0.442115 -13.137899
v 14.554625 -0.786959 -13.166646
v 14.846500 -0.786959 -13.137899
v 15.138374 -0.786959 -13.166646
v 15.419033 -0.786959 -13.251782
v 15.138374 -0.442115 -13.166646
v 15.419033 -0.442115 -13.251782
v 15.677689 -0.442115 -13.390038
v 15.904404 -0.442115 -13.576097
v 15.677689 -0.786959 -13.390038
v 15.904404 -0.786959 -13.576097
v 16.090462 -0.786959 -13.802811
v 16.228718 -0.786959 -14.061466
v 16.090462 -0.442115 -13.802811
v 16.228718 -0.442115 -14.061466
v 16.313854 -0.442115 -14.342126
v 16.342600 -0.442115 -14.634000
v 16.313854 -0.786959 -14.342126
v 16.342600 -0.786959 -14.634000
v 16.313854 -0.786959 -14.925876
v 16.228718 -0.786959 -15.206533
v 16.313854 -0.442115 -14.925876
v 16.228718 -0.442115 -15.206533
v 16.090464 -0.442115 -15.465190
v 15.904404 -0.442115 -15.691905
v 16.090464 -0.786959 -15.465190
v 15.904404 -0.786959 -15.691905
v 15.677691 -0.786959 -15.877964
v 15.419033 -0.786959 -16.016220
v 15.677691 -0.442115 -15.877964
v 15.419033 -0.442115 -16.016220
v 15.138374 -0.442115 -16.101355
vn 0.0980 -0.0000 -0.9952
vn -0.0980 -0.0000 -0.9952
vn -0.2903 -0.0000 -0.9569
vn -0.0000 1.0000 -0.0000
vn -0.4714 -0.0000 -0.8819
vn -0.6344 -0.0000 -0.7730
vn -0.7730 -0.0000 -0.6344
vn -0.8819 -0.0000 -0.4714
vn -0.9569 -0.0000 -0.2903
vn -0.9952 -0.0000 -0.0980
vn -0.9952 -0.0000 0.0980
vn -0.9569 -0.0000 0.2903
vn -0.8819 -0.0000 0.4714
vn -0.7730 -0.0000 0.6344
vn -0.6344 -0.0000 0.7730
vn -0.4714 -0.0000 0.8819
vn -0.2903 -0.0000 0.9569
vn -0.0980 -0.0000 0.9952
vn 0.0980 -0.0000 0.9952
vn 0.2903 -0.0000 0.9569
vn 0.4714 -0.0000 0.8819
vn 0.6344 -0.0000 0.7730
vn 0.7730 -0.0000 0.6344
vn 0.8819 -0.0000 0.4714
vn 0.9569 -0.0000 0.2903
vn 0.9952 -0.0000 0.0980
vn 0.9952 -0.0000 -0.0980
vn 0.9569 -0.0000 -0.2903
vn 0.8819 -0.0000 -0.4714
vn 0.7730 -0.0000 -0.6344
vn 0.6344 -0.0000 -0.7730
vn 0.4714 -0.0000 -0.8819
vn 0.2903 -0.0000 -0.9569
vt 1.182974 0.688451
vt 1.182974 0.811549
vt 1.140288 0.811549
vt 1.140288 0.688451
vt -0.140288 0.688451
vt -0.140288 0.811549
vt -0.182974 0.811549
vt -0.182974 0.688451
vt -0.097602 0.688451
vt -0.097602 0.811549
vt 0.232667 0.162860
vt 0.250000 0.161153
vt 0.267333 0.162860
vt 0.284000 0.167916
vt 0.299361 0.176126
vt 0.312824 0.187176
vt 0.323874 0.200639
vt 0.332084 0.216000
vt 0.337140 0.232667
vt 0.338847 0.250000
vt 0.337140 0.267333
vt 0.332084 0.284000
vt 0.323874 0.299361
vt 0.312824 0.312824
vt 0.299361 0.323874
vt 0.284000 0.332084
vt 0.267333 0.337140
vt 0.250000 0.338847
vt 0.232667 0.337140
vt 0.216000 0.332084
vt 0.200639 0.323874
vt 0.187176 0.312824
vt 0.176126 0.299361
vt 0.167916 0.284000
vt 0.162860 0.267333
vt 0.161153 0.250000
vt 0.162860 0.232667
vt 0.167916 0.216000
vt 0.176126 0.200639
vt 0.187176 0.187176
vt 0.200639 0.176126
vt 0.216000 0.167916
vt -0.054916 0.688451
vt -0.054916 0.811549
vt -0.012230 0.688451
vt -0.012230 0.811549
vt 0.030456 0.688451
vt 0.030456 0.811549
vt 0.073141 0.688451
vt 0.073141 0.811549
vt 0.115827 0.688451
vt 0.115827 0.811549
vt 0.158513 0.688451
vt 0.158513 0.811549
vt 0.201199 0.688451
vt 0.201199 0.811549
vt 0.243885 0.688451
vt 0.243885 0.811549
vt 0.286571 0.688451
vt 0.286571 0.811549
vt 0.329257 0.688451
vt 0.329257 0.811549
vt 0.371942 0.688451
vt 0.371942 0.811549
vt 0.414628 0.688451
vt 0.414628 0.811549
vt 0.457314 0.688451
vt 0.457314 0.811549
vt 0.500000 0.688451
vt 0.500000 0.811549
vt 0.542686 0.688451
vt 0.542686 0.811549
vt 0.585372 0.688451
vt 0.585372 0.811549
vt 0.628058 0.688451
vt 0.628058 0.811549
vt 0.670743 0.688451
vt 0.670743 0.811549
vt 0.713429 0.688451
vt 0.713429 0.811549
vt 0.756115 0.688451
vt 0.756115 0.811549
vt 0.798801 0.688451
vt 0.798801 0.811549
vt 0.841487 0.688451
vt 0.841487 0.811549
vt 0.884173 0.688451
vt 0.884173 0.811549
vt 0.926859 0.688451
vt 0.926859 0.811549
vt 0.969544 0.688451
vt 0.969544 0.811549
vt 1.012230 0.688451
vt 1.012230 0.811549
vt 1.054916 0.688451
vt 1.054916 0.811549
vt 1.097602 0.688451
vt 1.097602 0.811549
s 0
usemtl Material.003
f 109/162/59 111/163/59 172/164/59 110/165/59
f 112/166/60 114/167/60 111/168/60 109/169/60
f 113/170/61 115/171/61 114/167/61 112/166/61
f 172/172/62 111/173/62 114/174/62 115/175/62 116/176/62 117/177/62 122/178/62 123/179/62 124/180/62 125/181/62 130/182/62 131/183/62 132/184/62 133/185/62 138/186/62 139/187/62 140/188/62 141/189/62 146/190/62 147/191/62 148/192/62 149/193/62 154/194/62 155/195/62 156/196/62 157/197/62 162/198/62 163/199/62 164/200/62 165/201/62 170/202/62 171/203/62
f 118/204/63 116/205/63 115/171/63 113/170/63
f 119/206/64 117/207/64 116/205/64 118/204/64
f 120/208/65 122/209/65 117/207/65 119/206/65
f 121/210/66 123/211/66 122/209/66 120/208/66
f 126/212/67 124/213/67 123/211/67 121/210/67
f 127/214/68 125/215/68 124/213/68 126/212/68
f 128/216/69 130/217/69 125/215/69 127/214/69
f 129/218/70 131/219/70 130/217/70 128/216/70
f 134/220/71 132/221/71 131/219/71 129/218/71
f 135/222/72 133/223/72 132/221/72 134/220/72
f 136/224/73 138/225/73 133/223/73 135/222/73
f 137/226/74 139/227/74 138/225/74 136/224/74
f 142/228/75 140/229/75 139/227/75 137/226/75
f 143/230/76 141/231/76 140/229/76 142/228/76
f 144/232/77 146/233/77 141/231/77 143/230/77
f 145/234/78 147/235/78 146/233/78 144/232/78
f 150/236/79 148/237/79 147/235/79 145/234/79
f 151/238/80 149/239/80 148/237/80 150/236/80
f 152/240/81 154/241/81 149/239/81 151/238/81
f 153/242/82 155/243/82 154/241/82 152/240/82
f 158/244/83 156/245/83 155/243/83 153/242/83
f 159/246/84 157/247/84 156/245/84 158/244/84
f 160/248/85 162/249/85 157/247/85 159/246/85
f 161/250/86 163/251/86 162/249/86 160/248/86
f 166/252/87 164/253/87 163/251/87 161/250/87
f 167/254/88 165/255/88 164/253/88 166/252/88
f 168/256/89 170/257/89 165/255/89 167/254/89
f 169/258/90 171/259/90 170/257/90 168/256/90
f 110/165/91 172/164/91 171/259/91 169/258/91
o Cube.004
v -0.586757 -1.217030 -30.588009
v -1.354684 -1.217030 -27.702511
v 0.516224 -1.217030 -32.914551
v -0.586757 -3.745199 -30.588009
v -0.586757 1.012047 -30.588009
v -1.354684 1.012047 -27.702511
v 0.516224 1.012047 -32.914551
v 1.661712 1.012047 -34.665924
v 3.287747 1.012047 -35.468216
v 1.661712 -1.217030 -34.665924
v 3.287747 -1.217030 -35.468216
v 1.661712 -3.745199 -34.665924
v 3.287747 1.024280 -35.468216
v 5.132380 1.024280 -35.004440
v 5.132380 -1.217030 -35.004440
v 6.474494 -1.217030 -34.186172
v 5.132380 -3.745199 -35.004440
v 5.132380 1.012047 -35.004440
v 6.474494 1.012047 -34.186172
v 7.476550 1.012047 -32.457279
v 7.396044 1.012047 -30.571905
v 7.476550 -1.217030 -32.457279
v 7.396044 -1.217030 -30.571905
v 7.476550 -3.745199 -32.457279
v 7.396044 1.024280 -30.571903
v 7.131683 1.024280 -28.689314
v 7.131683 -1.217030 -28.689314
v 7.842158 -1.217030 -27.028357
v 7.131683 -3.745199 -28.689314
v 7.131683 1.012047 -28.689314
v 7.842158 1.012047 -27.028357
v 10.213493 1.012047 -26.408949
v 12.442808 1.012047 -26.320023
v 10.213493 -1.217030 -26.408949
v 12.442808 -1.217030 -26.320023
v 10.213493 -3.745199 -26.408949
v 14.336902 1.024280 -26.021046
v 15.949459 1.024280 -25.616419
v 14.336902 -1.217030 -26.021046
v 15.949459 -1.217030 -25.616419
v 14.336902 -3.745199 -26.021046
v 14.336902 1.012047 -26.021046
v 15.949459 1.012047 -25.616419
v 16.957563 1.012047 -24.763187
v 16.911257 1.012047 -23.118774
v 16.957563 -1.217030 -24.763187
v 17.522449 -1.217030 -24.285084
v 16.911257 -1.217030 -23.118774
v 16.957563 1.024280 -24.763187
v 16.911257 1.024280 -23.118774
v 16.960283 1.024280 -21.527330
v 16.763588 1.024280 -20.586489
v 16.960283 -1.217030 -21.527330
v 16.763588 -1.217030 -20.586489
v 16.960283 1.012047 -21.527330
v 16.763588 1.012047 -20.586489
v 16.246861 1.012047 -19.961777
v 11.969666 1.012047 -20.969570
v 11.857749 1.012047 -20.236334
v 11.926189 1.012047 -21.401749
v 11.969666 -0.272961 -20.969570
v 11.857749 -0.272961 -20.236334
v 11.926189 -0.272961 -21.401749
v 11.782019 -0.272961 -21.741083
v 11.330331 -0.272961 -22.133213
v 11.782019 1.012047 -21.741083
v 11.330331 1.012047 -22.133213
v 10.692653 1.012047 -22.526022
v 10.123441 1.012047 -22.563847
v 10.692653 -0.272961 -22.526022
v 10.123441 -0.272961 -22.563847
v 9.369847 -0.272961 -22.372259
v 8.854875 -0.272961 -22.014894
v 9.369847 1.012047 -22.372259
v 8.854875 1.012047 -22.014894
v 8.602404 1.012047 -21.520927
v 8.560365 1.012047 -20.885038
v 8.602404 -0.272961 -21.520927
v 8.560365 -0.272961 -20.885038
v 8.737273 -0.272961 -20.060770
v 9.480153 -0.272961 -19.330097
v 8.737273 1.012047 -20.060770
v 9.480153 1.012047 -19.330097
v 10.481830 1.012047 -19.178341
v 11.047242 1.012047 -19.310486
v 10.481830 -0.272961 -19.178341
v 11.047242 -0.272961 -19.310486
v 11.595520 -0.272961 -19.860565
v 11.595520 1.012047 -19.860565
v 1.893929 1.012047 -20.287333
v 3.041317 1.012047 -19.459387
v 0.974710 1.012047 -21.230120
v 1.893929 -1.217030 -20.287333
v 3.041317 -1.217030 -19.459387
v 0.974710 -1.217030 -21.230120
v 1.893929 1.024280 -20.287333
v 3.041317 1.024280 -19.459387
v 0.974710 1.024280 -21.230120
v 1.893929 3.005712 -20.287333
v 3.041317 3.005712 -19.459387
v 0.974710 3.005712 -21.230120
v -2.452440 3.005712 -17.304020
v -2.137022 3.005712 -15.769197
v -2.548482 -1.217030 -17.771362
v -2.452440 1.012047 -17.304020
v -2.548482 1.012047 -17.771362
v -2.306067 1.012047 -20.117979
v -2.217600 1.012047 -22.834335
v -2.306067 -1.217030 -20.117979
v -2.217600 -1.217030 -22.834335
v -2.306067 -3.745199 -20.117979
v -2.306067 1.024280 -20.117979
v -2.217600 1.024280 -22.834335
v -2.548482 1.024280 -17.771362
v -1.808252 1.024280 -25.803011
v -1.354684 1.024280 -27.702511
v -1.808252 -1.217030 -25.803011
v -1.808252 -3.745199 -25.803011
v -1.808252 1.012047 -25.803011
v -1.354684 -3.745199 -27.702511
v -2.217600 -3.745199 -22.834335
v -2.548482 -3.745199 -17.771362
v 0.448183 -1.217030 -11.028190
v 0.448183 1.024280 -11.028190
v -0.713999 3.005712 -11.998671
v 0.448183 3.005712 -11.028190
v 4.324711 3.005712 -18.940269
v 4.324711 1.024280 -18.940269
v 4.324711 -1.217030 -18.940269
v 4.324711 1.012047 -18.940269
v 0.448183 1.012047 -11.028190
v 1.426309 1.012047 -10.211403
v 2.804601 1.012047 -9.576044
v 1.426309 -1.217030 -10.211403
v 2.804601 -1.217030 -9.576044
v 1.426309 -3.745199 -10.211403
v 2.804601 1.024280 -9.576044
v 4.410205 1.024280 -9.194706
v 7.092417 1.024280 -9.055803
v 4.410205 -1.217030 -9.194706
v 7.092417 -1.217030 -9.055803
v 4.410205 -3.745199 -9.194706
v 4.410205 1.012047 -9.194706
v 7.092417 1.012047 -9.055803
v 9.142918 1.012047 -9.328539
v 12.352626 1.012047 -16.387815
v 9.142918 -1.217030 -9.328539
v 9.506643 -1.217030 -9.376915
v 12.352626 -1.217030 -16.387815
v 9.142918 1.024280 -9.328539
v 12.352626 1.024280 -16.387815
v 11.912751 1.024280 -17.834015
v 11.912751 -1.217030 -17.834015
v 13.471877 -1.217030 -18.368237
v 11.912751 1.012047 -17.834015
v 13.471877 1.012047 -18.368237
v 15.104637 1.012047 -19.096542
v 15.104637 -1.217030 -19.096542
v 16.246861 -1.217030 -19.961777
v 15.104637 1.024280 -19.096542
v 16.246861 1.024280 -19.961777
v 12.529524 -1.217030 -10.008862
v 9.506643 -3.745199 -9.376915
v 7.092417 -3.745199 -9.055803
v 12.529524 -3.745199 -10.008862
v 14.418772 -3.745199 -10.623256
v 16.569836 -3.745199 -11.770178
v 14.418772 -1.217030 -10.623256
v 16.569836 -1.217030 -11.770178
v 18.298658 -1.217030 -14.230900
v 18.368950 -1.217030 -15.510208
v 18.298658 -3.745199 -14.230900
v 18.368950 -3.745199 -15.510208
v 18.439001 -3.745199 -17.250603
v 18.454865 -3.745199 -19.618326
v 18.439001 -1.217030 -17.250603
v 18.454865 -1.217030 -19.618326
v 18.354963 -1.217030 -20.552383
v 18.150810 -1.217030 -22.948879
v 18.354963 -3.745199 -20.552383
v 18.150810 -3.745199 -22.948879
v 17.522449 -3.745199 -24.285084
v 15.949459 -3.745199 -25.616419
v 2.804601 -3.745199 -9.576044
v 12.442808 -3.745199 -26.320023
v 7.842158 -3.745199 -27.028357
v 7.396044 -3.745199 -30.571905
v 6.474494 -3.745199 -34.186172
v 3.287747 -3.745199 -35.468216
v 0.516224 -3.745199 -32.914551
vn -0.9664 -0.0000 -0.2572
vn -0.9036 -0.0000 -0.4284
vn -0.0000 1.0000 -0.0000
vn -0.8369 -0.0000 -0.5474
vn -0.4425 -0.0000 -0.8968
vn 0.2438 -0.0000 -0.9698
vn 0.5206 -0.0000 -0.8538
vn 0.8652 -0.0000 -0.5015
vn 0.9991 -0.0000 0.0427
vn 0.9903 -0.0000 0.1391
vn 0.9194 -0.0000 -0.3933
vn 0.2527 -0.0000 -0.9675
vn 0.0399 -0.0000 -0.9992
vn 0.2434 -0.0000 -0.9699
vn 0.1559 -0.0000 -0.9878
vn 0.9996 -0.0000 0.0281
vn 0.6460 -0.0000 -0.7633
vn 0.9995 -0.0000 -0.0308
vn 0.9788 -0.0000 0.2046
vn 0.7706 -0.0000 0.6374
vn -0.9886 -0.0000 -0.1509
vn -0.9950 -0.0000 0.1001
vn -0.9204 -0.0000 0.3910
vn -0.6556 -0.0000 0.7551
vn -0.5245 -0.0000 0.8514
vn -0.0663 -0.0000 0.9978
vn 0.2464 -0.0000 0.9692
vn 0.5701 -0.0000 0.8216
vn 0.8904 -0.0000 0.4551
vn 0.9978 -0.0000 0.0660
vn 0.9777 -0.0000 -0.2098
vn 0.7012 -0.0000 -0.7129
vn 0.1498 -0.0000 -0.9887
vn -0.2276 -0.0000 -0.9738
vn -0.7083 -0.0000 -0.7059
vn -0.8201 -0.0000 -0.5723
vn -0.5852 -0.0000 0.8109
vn -0.7160 -0.0000 0.6981
vn 0.5852 -0.0000 -0.8109
vn 0.7160 -0.0000 -0.6981
vn -0.9947 -0.0000 -0.1028
vn -0.9995 -0.0000 -0.0326
vn 0.9906 -0.0000 0.1366
vn 0.9727 -0.0000 0.2323
vn -0.9727 -0.0000 -0.2323
vn -0.9906 -0.0000 -0.1366
vn 0.8980 -0.0000 0.4400
vn 0.3750 -0.0000 -0.9270
vn -0.3750 -0.0000 0.9270
vn -0.6410 -0.0000 0.7676
vn -0.4186 -0.0000 0.9082
vn -0.2311 -0.0000 0.9729
vn -0.0517 -0.0000 0.9987
vn 0.1318 -0.0000 0.9913
vn 0.9103 -0.0000 0.4139
vn 0.9567 -0.0000 -0.2910
vn 0.3241 -0.0000 0.9460
vn 0.4074 -0.0000 0.9133
vn 0.6038 -0.0000 0.7971
vn 0.2046 -0.0000 0.9788
vn 0.3093 -0.0000 0.9510
vn 0.4705 -0.0000 0.8824
vn 0.8182 -0.0000 0.5749
vn 0.9985 -0.0000 0.0549
vn 0.9992 -0.0000 0.0402
vn 1.0000 -0.0000 0.0067
vn 0.9943 -0.0000 -0.1064
vn 0.9964 -0.0000 -0.0849
vn 0.9049 -0.0000 -0.4256
vt 0.804041 1.534501
vt 0.772229 1.534501
vt 0.772229 1.606126
vt 0.804041 1.606126
vt 0.022470 0.876019
vt 0.130799 0.876019
vt 0.130799 0.804061
vt 0.022470 0.804061
vt 0.772229 1.667419
vt 0.804041 1.667419
vt 0.022470 0.941132
vt 0.130799 0.941132
vt -0.431519 0.508664
vt -0.456745 0.513938
vt -0.499414 0.512623
vt -0.543504 0.513865
vt -0.566381 0.486836
vt -0.577230 0.443600
vt -0.585246 0.392816
vt -0.587630 0.333044
vt -0.604238 0.269464
vt -0.648771 0.250415
vt -0.699247 0.257503
vt -0.749797 0.259661
vt -0.796152 0.232794
vt -0.818091 0.196810
vt -0.830526 0.147351
vt -0.809015 0.103754
vt -0.762057 0.073042
vt -0.699678 0.043469
vt -0.622313 0.022879
vt -0.571384 0.010718
vt -0.491788 -0.000257
vt -0.418958 -0.002629
vt -0.356040 -0.009129
vt -0.343510 -0.006554
vt -0.448776 0.085335
vt -0.423498 0.109981
vt -0.439524 0.288720
vt -0.456573 0.289847
vt -0.469817 0.296616
vt -0.479399 0.310424
vt -0.484536 0.330629
vt -0.483522 0.345891
vt -0.472990 0.362988
vt -0.462476 0.375099
vt -0.453378 0.378964
vt -0.441790 0.380130
vt 0.961142 1.303951
vt 0.929330 1.303951
vt 0.929330 1.362597
vt 0.961142 1.362597
vt 0.929330 1.446930
vt 0.961142 1.446930
vt 0.130799 0.140585
vt 0.239129 0.140585
vt 0.239129 0.059177
vt 0.130799 0.059177
vt 0.239129 0.000000
vt 0.130799 0.000000
vt 0.941785 0.473385
vt 0.941785 0.537247
vt 0.909799 0.537247
vt 0.909799 0.473385
vt 1.018259 1.512668
vt 0.872214 1.512668
vt 0.872214 1.644866
vt 1.018259 1.644866
vt 0.130799 0.295737
vt 0.239129 0.295737
vt 0.239129 0.230823
vt 0.130799 0.230823
vt 0.886106 1.740014
vt 1.004366 1.740014
vt 1.004366 1.541485
vt 0.886106 1.541485
vt 0.897769 1.556895
vt 0.792946 1.556895
vt 0.792946 1.701192
vt 0.897769 1.701192
vt 0.130799 0.653250
vt 0.239129 0.653250
vt 0.239129 0.574392
vt 0.130799 0.574392
vt 0.130799 0.367399
vt 0.239129 0.367399
vt 0.239129 0.270819
vt 0.130799 0.270819
vt 0.468387 0.796138
vt 0.468387 0.905060
vt 0.351357 0.905060
vt 0.351357 0.796138
vt 0.975893 0.882910
vt 0.850955 0.882910
vt 0.850955 1.032719
vt 0.975893 1.032719
vt 0.051673 0.064464
vt 0.160190 0.064464
vt 0.160190 -0.031991
vt 0.051673 -0.031991
vt 0.130799 0.734320
vt 0.239129 0.734320
vt 0.958897 0.976887
vt 0.867952 0.976887
vt 0.867952 1.101028
vt 0.958897 1.101028
vt 0.959754 1.101028
vt 0.867094 1.101028
vt 0.867094 1.217416
vt 0.959754 1.217416
vt 0.022470 0.258221
vt 0.130799 0.258221
vt 0.130799 0.148440
vt 0.022470 0.148440
vt 0.130799 0.032473
vt 0.022470 0.032473
vt 0.923004 0.381384
vt 0.923004 0.526174
vt 0.840047 0.526174
vt 0.840047 0.381384
vt 0.022470 0.430037
vt 0.130799 0.430037
vt 0.130799 0.351151
vt 0.022470 0.351151
vt 0.940179 1.183643
vt 0.886670 1.183643
vt 0.886670 1.350220
vt 0.940179 1.350220
vt 0.928270 1.411840
vt 0.834606 1.411840
vt 0.834606 1.523461
vt 0.928270 1.523461
vt 0.022470 0.505544
vt 0.130799 0.505544
vt 0.022470 0.478428
vt 0.763716 0.394449
vt 0.763716 0.302574
vt 0.848658 0.302574
vt 0.848658 0.394449
vt -0.129673 0.304340
vt -0.130970 0.314092
vt -0.147913 0.395141
vt -0.164386 0.445795
vt -0.195138 0.503469
vt -0.261114 0.549822
vt -0.295415 0.551706
vt -0.342078 0.553585
vt -0.405561 0.554010
vt -0.430605 0.551331
vt -0.494859 0.545858
vt -0.530685 0.529010
vt -0.414770 0.494809
vt -0.391571 0.464184
vt -0.372044 0.420407
vt -0.357720 0.378604
vt -0.318945 0.390398
vt 0.405033 0.788506
vt 0.405033 0.864148
vt 0.303571 0.864148
vt 0.303571 0.788506
vt 0.401412 0.792606
vt 0.401412 0.821011
vt 0.307192 0.821011
vt 0.307192 0.792606
vt 0.164851 1.433266
vt 0.071136 1.433266
vt 0.071136 1.481884
vt 0.164851 1.481884
vt -0.175243 0.071218
vt -0.153344 0.097443
vt -0.136309 0.134397
vt -0.126084 0.177447
vt -0.122360 0.249362
vt -0.422131 0.377129
vt -0.412056 0.370098
vt -0.397307 0.355398
vt -0.393764 0.340238
vt -0.397833 0.313381
vt -0.417424 0.293463
vt -0.401299 0.140744
vt -0.387381 0.175154
vt 0.790839 0.788992
vt 0.790839 0.807331
vt 0.802477 0.807331
vt 0.802477 0.788992
vt 0.784509 0.788992
vt 0.784509 0.807331
vt 0.049080 0.843968
vt 0.058721 0.846185
vt 0.070986 0.840999
vt 0.081270 0.815990
vt 0.082556 0.781284
vt 0.079995 0.761436
vt 0.071141 0.741690
vt 0.065206 0.732113
vt 0.054025 0.727347
vt 0.047545 0.728350
vt 0.042568 0.732970
vt 0.037102 0.748237
vt 0.031812 0.769981
vt 0.031812 0.789760
vt 0.035460 0.816233
vt 0.041371 0.834591
vt 0.784509 0.629534
vt 0.802848 0.629534
vt 0.802848 0.624697
vt 0.784509 0.624697
vt 0.784509 0.645031
vt 0.802848 0.645031
vt 0.784509 0.666990
vt 0.802848 0.666990
vt 0.784509 0.686749
vt 0.802848 0.686749
vt 0.784509 0.713032
vt 0.802848 0.713032
vt 0.784509 0.731107
vt 0.802848 0.731107
vt 0.784509 0.740516
vt 0.802848 0.740516
vt 0.784509 0.731107
vt 0.784509 0.750404
vt 0.802848 0.750404
vt 0.784509 0.761405
vt 0.802848 0.761405
vt 0.370295 0.753306
vt 0.388634 0.753306
vt 0.388634 0.727347
vt 0.370295 0.727347
vt 0.370295 0.787953
vt 0.388634 0.787953
vt 0.370295 0.807417
vt 0.388634 0.807417
vt 0.784509 0.780099
vt 0.802848 0.780099
vt 0.802848 0.761405
vt 0.784509 0.761405
vt 0.784509 0.788992
vt 0.802848 0.788992
vt 0.051343 1.510773
vt 0.019531 1.510773
vt 0.019531 1.570401
vt 0.051343 1.570401
vt 0.019531 1.617957
vt 0.051343 1.617957
vt 0.604284 1.513494
vt 0.572297 1.513494
vt 0.572297 1.573901
vt 0.604284 1.573901
vt 0.604284 1.464919
vt 0.572297 1.464919
vt 0.587008 0.737070
vt 0.501965 0.737070
vt 0.501965 0.826656
vt 0.587008 0.826656
vt 0.587008 0.665033
vt 0.501965 0.665033
vt -0.201264 0.040057
vt -0.302359 0.001903
vt 0.804041 1.298599
vt 0.772229 1.298599
vt 0.772229 1.354050
vt 0.804041 1.354050
vt 0.772229 1.416830
vt 0.804041 1.416830
vt 0.022470 0.689006
vt 0.130799 0.689006
vt 0.130799 0.630571
vt 0.022470 0.630571
vt 0.752697 0.797695
vt 0.752697 0.839221
vt 0.720711 0.839221
vt 0.720711 0.797695
vt 0.130799 0.577656
vt 0.022470 0.577656
vt 0.752697 0.876399
vt 0.720711 0.876399
vt 0.752697 0.749855
vt 0.720711 0.749855
vt 0.752697 0.717739
vt 0.720711 0.717739
vt 0.804041 1.487732
vt 0.772229 1.487732
vt 0.130799 0.757454
vt 0.022470 0.757454
vt 0.345895 0.533607
vt 0.251664 0.533607
vt 0.251664 1.031409
vt 0.345895 1.031409
vt 0.501965 0.926471
vt 0.587008 0.926471
vt 0.572297 1.641206
vt 0.604284 1.641206
vt 0.051343 1.443766
vt 0.019531 1.443766
vt 0.704162 1.693215
vt 0.672350 1.693215
vt 0.672350 1.743962
vt 0.704162 1.743962
vt 0.704162 1.621314
vt 0.672350 1.621314
vt -0.085859 0.844234
vt 0.022470 0.844234
vt 0.022470 0.778240
vt -0.085859 0.778240
vt 0.652819 0.706669
vt 0.652819 0.762264
vt 0.620833 0.762264
vt 0.620833 0.706669
vt 0.652819 0.854924
vt 0.620833 0.854924
vt 0.022470 0.700256
vt -0.085859 0.700256
vt 0.022470 0.568445
vt -0.085859 0.568445
vt 0.704162 1.288612
vt 0.672350 1.288612
vt 0.672350 1.396514
vt 0.704162 1.396514
vt 0.022470 0.448429
vt -0.085859 0.448429
vt -0.085859 0.466510
vt 0.314434 1.347288
vt 0.314434 1.725218
vt 0.249081 1.725218
vt 0.249081 1.347288
vt 0.278219 0.849726
vt 0.278219 0.869481
vt 0.246233 0.869481
vt 0.246233 0.849726
vt 0.133899 1.618346
vt 0.102088 1.618346
vt 0.102088 1.700641
vt 0.133899 1.700641
vt 0.133899 1.532036
vt 0.102088 1.532036
vt 0.164842 0.814427
vt 0.164842 0.898650
vt 0.095881 0.898650
vt 0.095881 0.814427
vt 0.022470 0.297446
vt -0.085859 0.297446
vt 0.022470 0.202408
vt -0.085859 0.202408
vt 0.022470 0.092820
vt -0.085859 0.092820
vt -0.084807 0.088667
vt 0.021418 0.088667
vt 0.021418 0.004153
vt -0.084807 0.004153
vt 0.130799 0.564788
vt 0.239129 0.564788
vt 0.239129 0.536907
vt 0.130799 0.536907
vt 0.130799 0.500478
vt 0.239129 0.500478
vt 0.239129 0.462716
vt 0.130799 0.462716
vt 0.239129 0.411866
vt 0.130799 0.411866
vt 0.239129 0.392503
vt 0.130799 0.392503
vt 0.239129 0.342481
vt 0.130799 0.342481
vt 0.022470 0.534468
vt 0.130799 0.534468
s 0
usemtl Material
f 174/260/92 178/261/92 177/262/92 173/263/92
f 173/264/92 176/265/92 292/266/92 174/267/92
f 173/263/93 177/262/93 179/268/93 175/269/93
f 175/270/93 362/271/93 176/265/93 173/264/93
f 228/272/94 227/273/94 217/274/94 216/275/94 215/276/94 214/277/94 205/278/94 204/279/94 203/280/94 202/281/94 193/282/94 192/283/94 191/284/94 190/285/94 181/286/94 180/287/94 179/288/94 177/289/94 178/290/94 291/291/94 280/292/94 279/293/94 278/294/94 277/295/94 264/296/94 262/297/94 249/298/94 248/299/94 247/300/94 246/301/94 241/302/94 240/303/94 239/304/94 238/305/94 232/306/94 230/307/94
f 175/308/95 179/309/95 180/310/95 182/311/95
f 182/311/96 180/310/96 181/312/96 183/313/96
f 183/314/96 361/315/96 184/316/96 182/317/96
f 182/317/95 184/316/95 362/318/95 175/319/95
f 187/320/97 183/321/97 185/322/97 186/323/97
f 187/324/98 190/325/98 191/326/98 188/327/98
f 188/328/98 360/329/98 189/330/98 187/331/98
f 187/331/97 189/330/97 361/315/97 183/314/97
f 188/332/99 191/333/99 192/334/99 194/335/99
f 194/336/100 192/337/100 193/338/100 195/339/100
f 195/340/100 359/341/100 196/342/100 194/343/100
f 194/344/99 196/345/99 360/346/99 188/347/99
f 199/348/101 195/349/101 197/350/101 198/351/101
f 199/352/102 202/353/102 203/354/102 200/355/102
f 200/356/102 358/357/102 201/358/102 199/359/102
f 199/360/101 201/361/101 359/341/101 195/340/101
f 200/362/103 203/363/103 204/364/103 206/365/103
f 206/366/104 204/367/104 205/368/104 207/369/104
f 207/370/104 357/371/104 208/372/104 206/373/104
f 206/373/103 208/372/103 358/374/103 200/375/103
f 212/376/105 211/377/105 209/378/105 210/379/105
f 212/380/105 355/381/105 213/382/105 211/383/105
f 207/384/106 205/385/106 214/386/106 211/387/106
f 211/383/106 213/382/106 357/371/106 207/370/106
f 218/388/107 216/389/107 217/390/107 220/391/107
f 219/392/108 354/393/108 355/381/108 212/380/108 218/394/108
f 218/395/108 212/396/108 210/397/108 221/398/108
f 319/399/94 320/400/94 334/401/94 340/402/94 341/403/94 342/404/94 343/405/94 348/406/94 349/407/94 350/408/94 351/409/94 219/410/94 218/275/94 220/274/94 225/273/94 226/272/94 331/411/94 330/412/94 326/413/94 325/414/94 321/415/94
f 225/416/109 220/417/109 222/418/109 223/419/109
f 226/420/110 225/421/110 223/422/110 224/423/110
f 226/424/111 228/425/111 229/426/111 331/427/111
f 303/428/94 304/429/94 305/430/94 315/431/94 316/432/94 317/399/94 318/415/94 327/414/94 328/413/94 329/412/94 229/411/94 228/272/94 230/307/94 231/433/94 261/434/94 257/435/94 256/436/94 255/437/94 254/438/94 249/298/94 262/297/94 263/439/94 302/440/94
f 230/441/112 233/442/112 234/443/112 231/444/112
f 232/445/113 235/446/113 233/442/113 230/441/113
f 250/447/94 251/448/94 252/449/94 253/450/94 258/451/94 259/452/94 260/453/94 234/454/94 233/455/94 235/456/94 236/457/94 237/458/94 242/459/94 243/460/94 244/461/94 245/462/94
f 238/463/114 236/464/114 235/465/114 232/466/114
f 239/467/115 237/468/115 236/464/115 238/463/115
f 240/469/116 242/470/116 237/468/116 239/467/116
f 241/471/117 243/472/117 242/470/117 240/469/117
f 246/473/118 244/474/118 243/472/118 241/471/118
f 247/475/119 245/476/119 244/474/119 246/473/119
f 248/477/120 250/478/120 245/476/120 247/479/120
f 249/480/121 251/481/121 250/478/121 248/477/121
f 254/482/122 252/483/122 251/481/122 249/480/122
f 255/484/123 253/485/123 252/486/123 254/487/123
f 256/488/124 258/489/124 253/485/124 255/484/124
f 257/490/125 259/491/125 258/489/125 256/488/125
f 261/492/126 260/493/126 259/494/126 257/495/126
f 231/496/127 234/497/127 260/493/127 261/492/127
f 266/498/128 263/499/128 262/500/128 265/501/128
f 265/501/129 262/500/129 264/502/129 267/503/129
f 265/504/130 268/505/130 269/506/130 266/507/130
f 267/508/131 270/509/131 268/505/131 265/504/131
f 268/510/130 271/511/130 272/512/130 269/513/130
f 270/514/131 273/515/131 271/511/131 268/510/131
f 297/516/94 298/428/94 299/440/94 272/439/94 271/297/94 273/296/94 274/295/94 275/517/94
f 276/518/132 278/519/132 279/520/132 281/521/132
f 281/521/133 279/520/133 280/522/133 282/523/133
f 282/524/133 293/525/133 283/526/133 281/527/133
f 282/528/133 281/529/133 284/530/133 285/531/133
f 281/527/132 283/526/132 294/532/132 276/533/132
f 281/529/132 276/534/132 286/535/132 284/530/132
f 289/536/134 287/537/134 285/531/134 282/528/134
f 174/538/135 288/539/135 287/537/135 289/536/135
f 289/540/136 291/541/136 178/261/136 174/260/136
f 174/267/136 292/266/136 290/542/136 289/543/136
f 282/523/137 280/522/137 291/541/137 289/540/137
f 289/543/137 290/542/137 293/525/137 282/524/137
f 300/544/138 299/545/138 298/546/138 296/547/138
f 269/513/139 272/512/139 299/548/139 300/549/139
f 266/507/139 269/506/139 300/550/139 301/551/139
f 301/552/140 302/553/140 263/499/140 266/498/140
f 306/554/141 304/555/141 303/556/141 295/557/141
f 307/558/142 305/559/142 304/555/142 306/554/142
f 306/560/142 308/561/142 356/562/142 307/563/142
f 307/564/143 312/565/143 310/566/143 309/567/143
f 312/565/144 313/568/144 311/569/144 310/566/144
f 307/563/143 356/562/143 314/570/143 312/571/143
f 312/571/144 314/570/144 336/572/144 313/573/144
f 319/574/145 317/575/145 316/576/145 313/577/145
f 313/573/145 336/572/145 335/578/145 320/579/145 319/580/145
f 319/581/146 321/582/146 323/583/146 322/584/146
f 321/585/147 325/586/147 324/587/147 323/588/147
f 326/589/148 328/590/148 327/591/148 325/592/148
f 330/593/149 329/594/149 328/590/149 326/589/149
f 330/595/150 331/596/150 333/597/150 332/598/150
f 320/579/151 335/578/151 337/599/151 334/600/151
f 334/600/152 337/599/152 338/601/152 340/602/152
f 340/602/153 338/601/153 339/603/153 341/604/153
f 341/605/154 339/606/154 344/607/154 342/608/154
f 342/609/155 344/610/155 345/611/155 343/612/155
f 343/613/156 345/614/156 346/615/156 348/616/156
f 348/616/157 346/615/157 347/617/157 349/618/157
f 349/618/158 347/617/158 352/619/158 350/620/158
f 350/620/159 352/619/159 353/621/159 351/622/159
f 351/623/160 353/624/160 354/393/160 219/392/160
o Cube.005
v 10.322454 1.081122 -22.573574
v 9.989508 1.081122 -22.540783
v 10.655401 1.081122 -22.540783
v 10.975553 1.081122 -22.443665
v 11.270606 1.081122 -22.285955
v 11.529222 1.081122 -22.073715
v 11.741465 1.081122 -21.815098
v 11.899173 1.081122 -21.520044
v 11.996290 1.081122 -21.199894
v 12.029081 1.081122 -20.866945
v 11.996290 1.081122 -20.534000
v 11.899174 1.081122 -20.213848
v 11.741464 1.081122 -19.918795
v 11.529222 1.081122 -19.660177
v 11.270606 1.081122 -19.447937
v 10.975554 1.081122 -19.290226
v 10.655400 1.081122 -19.193110
v 10.322454 1.081122 -19.160316
v 9.989508 1.081122 -19.193110
v 9.669355 1.081122 -19.290226
v 9.374303 1.081122 -19.447937
v 9.115686 1.081122 -19.660177
v 8.903444 1.081122 -19.918793
v 8.745735 1.081122 -20.213848
v 8.648618 1.081122 -20.534000
v 8.615827 1.081122 -20.866947
v 8.648618 1.081122 -21.199892
v 8.745734 1.081122 -21.520044
v 8.903444 1.081122 -21.815098
v 9.115685 1.081122 -22.073715
v 9.374302 1.081122 -22.285955
v 9.669355 1.081122 -22.443665
l 364 363
l 363 365
l 365 366
l 366 367
l 367 368
l 368 369
l 369 370
l 370 371
l 371 372
l 372 373
l 373 374
l 374 375
l 375 376
l 376 377
l 377 378
l 378 379
l 379 380
l 380 381
l 381 382
l 382 383
l 383 384
l 384 385
l 385 386
l 386 387
l 387 388
l 388 389
l 389 390
l 390 391
l 391 392
l 392 393
l 393 394
l 394 364
